<?xml version="1.0" encoding="UTF-8"?>
<svg width="4039px" height="2335px" viewBox="0 0 4039 2335" version="1.1" xmlns="http://www.w3.org/2000/svg" xmlns:xlink="http://www.w3.org/1999/xlink">
    <title>Page 1</title>
    <g id="Page-1" stroke="none" stroke-width="1" fill="none" fill-rule="evenodd">
        <polygon id="Path" stroke-opacity="0.8" stroke="#EDAE1F" stroke-width="20" points="3473.9 421.7 3314 329.4 3154.1 421.7 3154.1 606.3 3314 698.6 3473.9 606.3"></polygon>
        <polygon id="Path" stroke-opacity="0.8" stroke="#EDAE1F" stroke-width="20" points="3658.9 751.7 3499 659.4 3339.1 751.7 3339.1 936.3 3499 1028.6 3658.9 936.3"></polygon>
        <polygon id="Path" stroke-opacity="0.8" stroke="#EDAE1F" stroke-width="20" points="3843.9 421.7 3684 329.4 3524.1 421.7 3524.1 606.3 3684 698.6 3843.9 606.3"></polygon>
        <polygon id="Path" stroke-opacity="0.8" stroke="#EDAE1F" stroke-width="20" points="4028.9 104.7 3869 12.4 3709.1 104.7 3709.1 289.3 3869 381.6 4028.9 289.3"></polygon>
        <polygon id="Path" stroke-opacity="0.8" stroke="#EDAE1F" stroke-width="20" points="4028.9 751.7 3869 659.4 3709.1 751.7 3709.1 936.3 3869 1028.6 4028.9 936.3"></polygon>
        <polygon id="Path" stroke-opacity="0.8" stroke="#EDAE1F" stroke-width="20" points="3658.9 104.7 3499 12.4 3339.1 104.7 3339.1 289.3 3499 381.6 3658.9 289.3"></polygon>
        <polygon id="Path" stroke-opacity="0.5" stroke="#EDAE1F" stroke-width="20" points="3103.9 421.7 2944 329.4 2784.1 421.7 2784.1 606.3 2944 698.6 3103.9 606.3"></polygon>
        <polygon id="Path" stroke-opacity="0.5" stroke="#EDAE1F" stroke-width="20" points="2733.9 421.7 2574 329.4 2414.1 421.7 2414.1 606.3 2574 698.6 2733.9 606.3"></polygon>
        <polygon id="Path" stroke-opacity="0.3" stroke="#EDAE1F" stroke-width="20" points="2363.9 421.7 2204 329.4 2044.1 421.7 2044.1 606.3 2204 698.6 2363.9 606.3"></polygon>
        <polygon id="Path" stroke-opacity="0.3" stroke="#EDAE1F" stroke-width="20" points="2178.9 104.7 2019 12.4 1859.1 104.7 1859.1 289.3 2019 381.6 2178.9 289.3"></polygon>
        <polygon id="Path" stroke-opacity="0.8" stroke="#EDAE1F" stroke-width="20" points="3288.9 751.7 3129 659.4 2969.1 751.7 2969.1 936.3 3129 1028.6 3288.9 936.3"></polygon>
        <polygon id="Path" stroke-opacity="0.5" stroke="#EDAE1F" stroke-width="20" points="2918.9 751.7 2759 659.4 2599.1 751.7 2599.1 936.3 2759 1028.6 2918.9 936.3"></polygon>
        <polygon id="Path" stroke-opacity="0.5" stroke="#EDAE1F" stroke-width="20" points="2548.9 751.7 2389 659.4 2229.1 751.7 2229.1 936.3 2389 1028.6 2548.9 936.3"></polygon>
        <polygon id="Path" stroke-opacity="0.3" stroke="#EDAE1F" stroke-width="20" points="2178.9 751.7 2019 659.4 1859.1 751.7 1859.1 936.3 2019 1028.6 2178.9 936.3"></polygon>
        <polygon id="Path" stroke-opacity="0.3" stroke="#EDAE1F" stroke-width="20" points="1808.9 751.7 1649 659.4 1489.1 751.7 1489.1 936.3 1649 1028.6 1808.9 936.3"></polygon>
        <polygon id="Path" stroke-opacity="0.8" stroke="#EDAE1F" stroke-width="20" points="3473.9 1068.7 3314 976.4 3154.1 1068.7 3154.1 1253.3 3314 1345.6 3473.9 1253.3"></polygon>
        <polygon id="Path" stroke-opacity="0.5" stroke="#EDAE1F" stroke-width="20" points="3103.9 1068.7 2944 976.4 2784.1 1068.7 2784.1 1253.3 2944 1345.6 3103.9 1253.3"></polygon>
        <polygon id="Path" stroke-opacity="0.5" stroke="#EDAE1F" stroke-width="20" points="2733.9 1068.7 2574 976.4 2414.1 1068.7 2414.1 1253.3 2574 1345.6 2733.9 1253.3"></polygon>
        <polygon id="Path" stroke-opacity="0.3" stroke="#EDAE1F" stroke-width="20" points="2363.9 1068.7 2204 976.4 2044.1 1068.7 2044.1 1253.3 2204 1345.6 2363.9 1253.3"></polygon>
        <polygon id="Path" stroke-opacity="0.3" stroke="#EDAE1F" stroke-width="20" points="1993.9 1068.7 1834 976.4 1674.1 1068.7 1674.1 1253.3 1834 1345.6 1993.9 1253.3"></polygon>
        <polygon id="Path" stroke-opacity="0.3" stroke="#EDAE1F" stroke-width="20" points="1623.9 1068.7 1464 976.4 1304.1 1068.7 1304.1 1253.3 1464 1345.6 1623.9 1253.3"></polygon>
        <polygon id="Path" stroke-opacity="0.1" stroke="#EDAE1F" stroke-width="20" points="1253.9 1068.7 1094 976.4 934.1 1068.7 934.1 1253.3 1094 1345.6 1253.9 1253.3"></polygon>
        <polygon id="Path" stroke-opacity="0.1" stroke="#EDAE1F" stroke-width="20" points="1067.9 751.7 908 659.4 748.1 751.7 748.1 936.3 908 1028.6 1067.9 936.3"></polygon>
        <polygon id="Path" stroke-opacity="0.8" stroke="#EDAE1F" stroke-width="20" points="3288.9 1398.7 3129 1306.4 2969.1 1398.7 2969.1 1583.3 3129 1675.6 3288.9 1583.3"></polygon>
        <polygon id="Path" stroke-opacity="0.5" stroke="#EDAE1F" stroke-width="20" points="2918.9 1398.7 2759 1306.4 2599.1 1398.7 2599.1 1583.3 2759 1675.6 2918.9 1583.3"></polygon>
        <polygon id="Path" stroke-opacity="0.5" stroke="#EDAE1F" stroke-width="20" points="2548.9 1398.7 2389 1306.4 2229.1 1398.7 2229.1 1583.3 2389 1675.6 2548.9 1583.3"></polygon>
        <polygon id="Path" stroke-opacity="0.3" stroke="#EDAE1F" stroke-width="20" points="2178.9 1398.7 2019 1306.4 1859.1 1398.7 1859.1 1583.3 2019 1675.6 2178.9 1583.3"></polygon>
        <polygon id="Path" stroke-opacity="0.3" stroke="#EDAE1F" stroke-width="20" points="1808.9 1398.7 1649 1306.4 1489.1 1398.7 1489.1 1583.3 1649 1675.6 1808.9 1583.3"></polygon>
        <polygon id="Path" stroke-opacity="0.1" stroke="#EDAE1F" stroke-width="20" points="1438.9 1398.7 1279 1306.4 1119.1 1398.7 1119.1 1583.3 1279 1675.6 1438.9 1583.3"></polygon>
        <polygon id="Path" stroke-opacity="0.1" stroke="#EDAE1F" stroke-width="20" points="1068.9 1398.7 909 1306.4 749.1 1398.7 749.1 1583.3 909 1675.6 1068.9 1583.3"></polygon>
        <polygon id="Path" stroke-opacity="0.1" stroke="#EDAE1F" stroke-width="20" points="698.9 1398.7 539 1306.4 379.1 1398.7 379.1 1583.3 539 1675.6 698.9 1583.3"></polygon>
        <polygon id="Path" stroke-opacity="0.1" stroke="#EDAE1F" stroke-width="20" points="329.9 1398.7 170 1306.4 10.1 1398.7 10.1 1583.3 170 1675.6 329.9 1583.3"></polygon>
        <polygon id="Path" stroke-opacity="0.1" stroke="#EDAE1F" stroke-width="20" points="511.9 1068.7 352 976.4 192.1 1068.7 192.1 1253.3 352 1345.6 511.9 1253.3"></polygon>
        <polygon id="Path" stroke-opacity="0.8" stroke="#EDAE1F" stroke-width="20" points="3473.9 1715.7 3314 1623.4 3154.1 1715.7 3154.1 1900.3 3314 1992.6 3473.9 1900.3"></polygon>
        <polygon id="Path" stroke-opacity="0.8" stroke="#EDAE1F" stroke-width="20" points="3473.9 1715.7 3314 1623.4 3154.1 1715.7 3154.1 1900.3 3314 1992.6 3473.9 1900.3"></polygon>
        <polygon id="Path" stroke-opacity="0.7" stroke="#EDAE1F" stroke-width="20" points="3103.9 1715.7 2944 1623.4 2784.1 1715.7 2784.1 1900.3 2944 1992.6 3103.9 1900.3"></polygon>
        <polygon id="Path" stroke-opacity="0.8" stroke="#EDAE1F" stroke-width="20" points="3473.9 1715.7 3314 1623.4 3154.1 1715.7 3154.1 1900.3 3314 1992.6 3473.9 1900.3"></polygon>
        <polygon id="Path" stroke-opacity="0.8" stroke="#EDAE1F" stroke-width="20" points="3473.9 1715.7 3314 1623.4 3154.1 1715.7 3154.1 1900.3 3314 1992.6 3473.9 1900.3"></polygon>
        <polygon id="Path" stroke-opacity="0.8" stroke="#EDAE1F" stroke-width="20" points="3103.9 1715.7 2944 1623.4 2784.1 1715.7 2784.1 1900.3 2944 1992.6 3103.9 1900.3"></polygon>
        <polygon id="Path" stroke-opacity="0.8" stroke="#EDAE1F" stroke-width="20" points="3658.9 2045.7 3499 1953.4 3339.1 2045.7 3339.1 2230.3 3499 2322.6 3658.9 2230.3"></polygon>
        <polygon id="Path" stroke-opacity="0.8" stroke="#EDAE1F" stroke-width="20" points="3658.9 2045.7 3499 1953.4 3339.1 2045.7 3339.1 2230.3 3499 2322.6 3658.9 2230.3"></polygon>
        <polygon id="Path" stroke-opacity="0.8" stroke="#EDAE1F" stroke-width="20" points="3658.9 2045.7 3499 1953.4 3339.1 2045.7 3339.1 2230.3 3499 2322.6 3658.9 2230.3"></polygon>
        <polygon id="Path" stroke-opacity="0.8" stroke="#EDAE1F" stroke-width="20" points="3658.9 2045.7 3499 1953.4 3339.1 2045.7 3339.1 2230.3 3499 2322.6 3658.9 2230.3"></polygon>
        <polygon id="Path" stroke-opacity="0.8" stroke="#EDAE1F" stroke-width="20" points="3843.9 1715.7 3684 1623.4 3524.1 1715.7 3524.1 1900.3 3684 1992.6 3843.9 1900.3"></polygon>
        <polygon id="Path" stroke-opacity="0.8" stroke="#EDAE1F" stroke-width="20" points="4028.9 2045.7 3869 1953.4 3709.1 2045.7 3709.1 2230.3 3869 2322.6 4028.9 2230.3"></polygon>
        <polygon id="Path" stroke-opacity="0.5" stroke="#EDAE1F" stroke-width="20" points="2733.9 1715.7 2574 1623.4 2414.1 1715.7 2414.1 1900.3 2574 1992.6 2733.9 1900.3"></polygon>
        <polygon id="Path" stroke-opacity="0.3" stroke="#EDAE1F" stroke-width="20" points="2363.9 1715.7 2204 1623.4 2044.1 1715.7 2044.1 1900.3 2204 1992.6 2363.9 1900.3"></polygon>
        <polygon id="Path" stroke-opacity="0.3" stroke="#EDAE1F" stroke-width="20" points="1993.9 1715.7 1834 1623.4 1674.1 1715.7 1674.1 1900.3 1834 1992.6 1993.9 1900.3"></polygon>
        <polygon id="Path" stroke-opacity="0.3" stroke="#EDAE1F" stroke-width="20" points="1623.9 1715.7 1464 1623.4 1304.1 1715.7 1304.1 1900.3 1464 1992.6 1623.9 1900.3"></polygon>
        <polygon id="Path" stroke-opacity="0.1" stroke="#EDAE1F" stroke-width="20" points="1253.9 1715.7 1094 1623.4 934.1 1715.7 934.1 1900.3 1094 1992.6 1253.9 1900.3"></polygon>
        <polygon id="Path" stroke-opacity="0.1" stroke="#EDAE1F" stroke-width="20" points="883.9 1715.7 724 1623.4 564.1 1715.7 564.1 1900.3 724 1992.6 883.9 1900.3"></polygon>
        <polygon id="Path" stroke-opacity="0.1" stroke="#EDAE1F" stroke-width="20" points="1067.9 2045.7 908 1953.4 748.1 2045.7 748.1 2230.3 908 2322.6 1067.9 2230.3"></polygon>
    </g>
</svg>